ply
format ascii 1.0
element vertex 512
property float x
property float y
property float z
element face 576
property list uchar int vertex_indices
end_header
1.400000 0.000000 2.400000
1.400000 -0.784000 2.400000
0.784000 -1.400000 2.400000
0.000000 -1.400000 2.400000
1.337500 0.000000 2.531250
1.337500 -0.749000 2.531250
0.749000 -1.337500 2.531250
0.000000 -1.337500 2.531250
1.437500 0.000000 2.531250
1.437500 -0.805000 2.531250
0.805000 -1.437500 2.531250
0.000000 -1.437500 2.531250
1.500000 0.000000 2.400000
1.500000 -0.840000 2.400000
0.840000 -1.500000 2.400000
0.000000 -1.500000 2.400000
0.000000 -1.400000 2.400000
-0.784000 -1.400000 2.400000
-1.400000 -0.784000 2.400000
-1.400000 0.000000 2.400000
0.000000 -1.337500 2.531250
-0.749000 -1.337500 2.531250
-1.337500 -0.749000 2.531250
-1.337500 0.000000 2.531250
0.000000 -1.437500 2.531250
-0.805000 -1.437500 2.531250
-1.437500 -0.805000 2.531250
-1.437500 0.000000 2.531250
0.000000 -1.500000 2.400000
-0.840000 -1.500000 2.400000
-1.500000 -0.840000 2.400000
-1.500000 0.000000 2.400000
-1.400000 0.000000 2.400000
-1.400000 0.784000 2.400000
-0.784000 1.400000 2.400000
0.000000 1.400000 2.400000
-1.337500 0.000000 2.531250
-1.337500 0.749000 2.531250
-0.749000 1.337500 2.531250
0.000000 1.337500 2.531250
-1.437500 0.000000 2.531250
-1.437500 0.805000 2.531250
-0.805000 1.437500 2.531250
0.000000 1.437500 2.531250
-1.500000 0.000000 2.400000
-1.500000 0.840000 2.400000
-0.840000 1.500000 2.400000
0.000000 1.500000 2.400000
0.000000 1.400000 2.400000
0.784000 1.400000 2.400000
1.400000 0.784000 2.400000
1.400000 0.000000 2.400000
0.000000 1.337500 2.531250
0.749000 1.337500 2.531250
1.337500 0.749000 2.531250
1.337500 0.000000 2.531250
0.000000 1.437500 2.531250
0.805000 1.437500 2.531250
1.437500 0.805000 2.531250
1.437500 0.000000 2.531250
0.000000 1.500000 2.400000
0.840000 1.500000 2.400000
1.500000 0.840000 2.400000
1.500000 0.000000 2.400000
1.500000 0.000000 2.400000
1.500000 -0.840000 2.400000
0.840000 -1.500000 2.400000
0.000000 -1.500000 2.400000
1.750000 0.000000 1.875000
1.750000 -0.980000 1.875000
0.980000 -1.750000 1.875000
0.000000 -1.750000 1.875000
2.000000 0.000000 1.350000
2.000000 -1.120000 1.350000
1.120000 -2.000000 1.350000
0.000000 -2.000000 1.350000
2.000000 0.000000 0.900000
2.000000 -1.120000 0.900000
1.120000 -2.000000 0.900000
0.000000 -2.000000 0.900000
0.000000 -1.500000 2.400000
-0.840000 -1.500000 2.400000
-1.500000 -0.840000 2.400000
-1.500000 0.000000 2.400000
0.000000 -1.750000 1.875000
-0.980000 -1.750000 1.875000
-1.750000 -0.980000 1.875000
-1.750000 0.000000 1.875000
0.000000 -2.000000 1.350000
-1.120000 -2.000000 1.350000
-2.000000 -1.120000 1.350000
-2.000000 0.000000 1.350000
0.000000 -2.000000 0.900000
-1.120000 -2.000000 0.900000
-2.000000 -1.120000 0.900000
-2.000000 0.000000 0.900000
-1.500000 0.000000 2.400000
-1.500000 0.840000 2.400000
-0.840000 1.500000 2.400000
0.000000 1.500000 2.400000
-1.750000 0.000000 1.875000
-1.750000 0.980000 1.875000
-0.980000 1.750000 1.875000
0.000000 1.750000 1.875000
-2.000000 0.000000 1.350000
-2.000000 1.120000 1.350000
-1.120000 2.000000 1.350000
0.000000 2.000000 1.350000
-2.000000 0.000000 0.900000
-2.000000 1.120000 0.900000
-1.120000 2.000000 0.900000
0.000000 2.000000 0.900000
0.000000 1.500000 2.400000
0.840000 1.500000 2.400000
1.500000 0.840000 2.400000
1.500000 0.000000 2.400000
0.000000 1.750000 1.875000
0.980000 1.750000 1.875000
1.750000 0.980000 1.875000
1.750000 0.000000 1.875000
0.000000 2.000000 1.350000
1.120000 2.000000 1.350000
2.000000 1.120000 1.350000
2.000000 0.000000 1.350000
0.000000 2.000000 0.900000
1.120000 2.000000 0.900000
2.000000 1.120000 0.900000
2.000000 0.000000 0.900000
2.000000 0.000000 0.900000
2.000000 -1.120000 0.900000
1.120000 -2.000000 0.900000
0.000000 -2.000000 0.900000
2.000000 0.000000 0.450000
2.000000 -1.120000 0.450000
1.120000 -2.000000 0.450000
0.000000 -2.000000 0.450000
1.500000 0.000000 0.225000
1.500000 -0.840000 0.225000
0.840000 -1.500000 0.225000
0.000000 -1.500000 0.225000
1.500000 0.000000 0.150000
1.500000 -0.840000 0.150000
0.840000 -1.500000 0.150000
0.000000 -1.500000 0.150000
0.000000 -2.000000 0.900000
-1.120000 -2.000000 0.900000
-2.000000 -1.120000 0.900000
-2.000000 0.000000 0.900000
0.000000 -2.000000 0.450000
-1.120000 -2.000000 0.450000
-2.000000 -1.120000 0.450000
-2.000000 0.000000 0.450000
0.000000 -1.500000 0.225000
-0.840000 -1.500000 0.225000
-1.500000 -0.840000 0.225000
-1.500000 0.000000 0.225000
0.000000 -1.500000 0.150000
-0.840000 -1.500000 0.150000
-1.500000 -0.840000 0.150000
-1.500000 0.000000 0.150000
-2.000000 0.000000 0.900000
-2.000000 1.120000 0.900000
-1.120000 2.000000 0.900000
0.000000 2.000000 0.900000
-2.000000 0.000000 0.450000
-2.000000 1.120000 0.450000
-1.120000 2.000000 0.450000
0.000000 2.000000 0.450000
-1.500000 0.000000 0.225000
-1.500000 0.840000 0.225000
-0.840000 1.500000 0.225000
0.000000 1.500000 0.225000
-1.500000 0.000000 0.150000
-1.500000 0.840000 0.150000
-0.840000 1.500000 0.150000
0.000000 1.500000 0.150000
0.000000 2.000000 0.900000
1.120000 2.000000 0.900000
2.000000 1.120000 0.900000
2.000000 0.000000 0.900000
0.000000 2.000000 0.450000
1.120000 2.000000 0.450000
2.000000 1.120000 0.450000
2.000000 0.000000 0.450000
0.000000 1.500000 0.225000
0.840000 1.500000 0.225000
1.500000 0.840000 0.225000
1.500000 0.000000 0.225000
0.000000 1.500000 0.150000
0.840000 1.500000 0.150000
1.500000 0.840000 0.150000
1.500000 0.000000 0.150000
-1.600000 0.000000 2.025000
-1.600000 -0.300000 2.025000
-1.500000 -0.300000 2.250000
-1.500000 0.000000 2.250000
-2.300000 0.000000 2.025000
-2.300000 -0.300000 2.025000
-2.500000 -0.300000 2.250000
-2.500000 0.000000 2.250000
-2.700000 0.000000 2.025000
-2.700000 -0.300000 2.025000
-3.000000 -0.300000 2.250000
-3.000000 0.000000 2.250000
-2.700000 0.000000 1.800000
-2.700000 -0.300000 1.800000
-3.000000 -0.300000 1.800000
-3.000000 0.000000 1.800000
-1.500000 0.000000 2.250000
-1.500000 0.300000 2.250000
-1.600000 0.300000 2.025000
-1.600000 0.000000 2.025000
-2.500000 0.000000 2.250000
-2.500000 0.300000 2.250000
-2.300000 0.300000 2.025000
-2.300000 0.000000 2.025000
-3.000000 0.000000 2.250000
-3.000000 0.300000 2.250000
-2.700000 0.300000 2.025000
-2.700000 0.000000 2.025000
-3.000000 0.000000 1.800000
-3.000000 0.300000 1.800000
-2.700000 0.300000 1.800000
-2.700000 0.000000 1.800000
-2.700000 0.000000 1.800000
-2.700000 -0.300000 1.800000
-3.000000 -0.300000 1.800000
-3.000000 0.000000 1.800000
-2.700000 0.000000 1.575000
-2.700000 -0.300000 1.575000
-3.000000 -0.300000 1.350000
-3.000000 0.000000 1.350000
-2.500000 0.000000 1.125000
-2.500000 -0.300000 1.125000
-2.650000 -0.300000 0.937500
-2.650000 0.000000 0.937500
-2.000000 0.000000 0.900000
-2.000000 -0.300000 0.900000
-1.900000 -0.300000 0.600000
-1.900000 0.000000 0.600000
-3.000000 0.000000 1.800000
-3.000000 0.300000 1.800000
-2.700000 0.300000 1.800000
-2.700000 0.000000 1.800000
-3.000000 0.000000 1.350000
-3.000000 0.300000 1.350000
-2.700000 0.300000 1.575000
-2.700000 0.000000 1.575000
-2.650000 0.000000 0.937500
-2.650000 0.300000 0.937500
-2.500000 0.300000 1.125000
-2.500000 0.000000 1.125000
-1.900000 0.000000 0.600000
-1.900000 0.300000 0.600000
-2.000000 0.300000 0.900000
-2.000000 0.000000 0.900000
1.700000 0.000000 1.425000
1.700000 -0.660000 1.425000
1.700000 -0.660000 0.600000
1.700000 0.000000 0.600000
2.600000 0.000000 1.425000
2.600000 -0.660000 1.425000
3.100000 -0.660000 0.825000
3.100000 0.000000 0.825000
2.300000 0.000000 2.100000
2.300000 -0.250000 2.100000
2.400000 -0.250000 2.025000
2.400000 0.000000 2.025000
2.700000 0.000000 2.400000
2.700000 -0.250000 2.400000
3.300000 -0.250000 2.400000
3.300000 0.000000 2.400000
1.700000 0.000000 0.600000
1.700000 0.660000 0.600000
1.700000 0.660000 1.425000
1.700000 0.000000 1.425000
3.100000 0.000000 0.825000
3.100000 0.660000 0.825000
2.600000 0.660000 1.425000
2.600000 0.000000 1.425000
2.400000 0.000000 2.025000
2.400000 0.250000 2.025000
2.300000 0.250000 2.100000
2.300000 0.000000 2.100000
3.300000 0.000000 2.400000
3.300000 0.250000 2.400000
2.700000 0.250000 2.400000
2.700000 0.000000 2.400000
2.700000 0.000000 2.400000
2.700000 -0.250000 2.400000
3.300000 -0.250000 2.400000
3.300000 0.000000 2.400000
2.800000 0.000000 2.475000
2.800000 -0.250000 2.475000
3.525000 -0.250000 2.493750
3.525000 0.000000 2.493750
2.900000 0.000000 2.475000
2.900000 -0.150000 2.475000
3.450000 -0.150000 2.512500
3.450000 0.000000 2.512500
2.800000 0.000000 2.400000
2.800000 -0.150000 2.400000
3.200000 -0.150000 2.400000
3.200000 0.000000 2.400000
3.300000 0.000000 2.400000
3.300000 0.250000 2.400000
2.700000 0.250000 2.400000
2.700000 0.000000 2.400000
3.525000 0.000000 2.493750
3.525000 0.250000 2.493750
2.800000 0.250000 2.475000
2.800000 0.000000 2.475000
3.450000 0.000000 2.512500
3.450000 0.150000 2.512500
2.900000 0.150000 2.475000
2.900000 0.000000 2.475000
3.200000 0.000000 2.400000
3.200000 0.150000 2.400000
2.800000 0.150000 2.400000
2.800000 0.000000 2.400000
0.000000 0.000000 3.150000
0.000000 0.000000 3.150000
0.000000 0.000000 3.150000
0.000000 0.000000 3.150000
0.800000 0.000000 3.150000
0.800000 -0.450000 3.150000
0.450000 -0.800000 3.150000
0.000000 -0.800000 3.150000
0.000000 0.000000 2.850000
0.000000 0.000000 2.850000
0.000000 0.000000 2.850000
0.000000 0.000000 2.850000
0.200000 0.000000 2.700000
0.200000 -0.112000 2.700000
0.112000 -0.200000 2.700000
0.000000 -0.200000 2.700000
0.000000 0.000000 3.150000
0.000000 0.000000 3.150000
0.000000 0.000000 3.150000
0.000000 0.000000 3.150000
0.000000 -0.800000 3.150000
-0.450000 -0.800000 3.150000
-0.800000 -0.450000 3.150000
-0.800000 0.000000 3.150000
0.000000 0.000000 2.850000
0.000000 0.000000 2.850000
0.000000 0.000000 2.850000
0.000000 0.000000 2.850000
0.000000 -0.200000 2.700000
-0.112000 -0.200000 2.700000
-0.200000 -0.112000 2.700000
-0.200000 0.000000 2.700000
0.000000 0.000000 3.150000
0.000000 0.000000 3.150000
0.000000 0.000000 3.150000
0.000000 0.000000 3.150000
-0.800000 0.000000 3.150000
-0.800000 0.450000 3.150000
-0.450000 0.800000 3.150000
0.000000 0.800000 3.150000
0.000000 0.000000 2.850000
0.000000 0.000000 2.850000
0.000000 0.000000 2.850000
0.000000 0.000000 2.850000
-0.200000 0.000000 2.700000
-0.200000 0.112000 2.700000
-0.112000 0.200000 2.700000
0.000000 0.200000 2.700000
0.000000 0.000000 3.150000
0.000000 0.000000 3.150000
0.000000 0.000000 3.150000
0.000000 0.000000 3.150000
0.000000 0.800000 3.150000
0.450000 0.800000 3.150000
0.800000 0.450000 3.150000
0.800000 0.000000 3.150000
0.000000 0.000000 2.850000
0.000000 0.000000 2.850000
0.000000 0.000000 2.850000
0.000000 0.000000 2.850000
0.000000 0.200000 2.700000
0.112000 0.200000 2.700000
0.200000 0.112000 2.700000
0.200000 0.000000 2.700000
0.200000 0.000000 2.700000
0.200000 -0.112000 2.700000
0.112000 -0.200000 2.700000
0.000000 -0.200000 2.700000
0.400000 0.000000 2.550000
0.400000 -0.224000 2.550000
0.224000 -0.400000 2.550000
0.000000 -0.400000 2.550000
1.300000 0.000000 2.550000
1.300000 -0.728000 2.550000
0.728000 -1.300000 2.550000
0.000000 -1.300000 2.550000
1.300000 0.000000 2.400000
1.300000 -0.728000 2.400000
0.728000 -1.300000 2.400000
0.000000 -1.300000 2.400000
0.000000 -0.200000 2.700000
-0.112000 -0.200000 2.700000
-0.200000 -0.112000 2.700000
-0.200000 0.000000 2.700000
0.000000 -0.400000 2.550000
-0.224000 -0.400000 2.550000
-0.400000 -0.224000 2.550000
-0.400000 0.000000 2.550000
0.000000 -1.300000 2.550000
-0.728000 -1.300000 2.550000
-1.300000 -0.728000 2.550000
-1.300000 0.000000 2.550000
0.000000 -1.300000 2.400000
-0.728000 -1.300000 2.400000
-1.300000 -0.728000 2.400000
-1.300000 0.000000 2.400000
-0.200000 0.000000 2.700000
-0.200000 0.112000 2.700000
-0.112000 0.200000 2.700000
0.000000 0.200000 2.700000
-0.400000 0.000000 2.550000
-0.400000 0.224000 2.550000
-0.224000 0.400000 2.550000
0.000000 0.400000 2.550000
-1.300000 0.000000 2.550000
-1.300000 0.728000 2.550000
-0.728000 1.300000 2.550000
0.000000 1.300000 2.550000
-1.300000 0.000000 2.400000
-1.300000 0.728000 2.400000
-0.728000 1.300000 2.400000
0.000000 1.300000 2.400000
0.000000 0.200000 2.700000
0.112000 0.200000 2.700000
0.200000 0.112000 2.700000
0.200000 0.000000 2.700000
0.000000 0.400000 2.550000
0.224000 0.400000 2.550000
0.400000 0.224000 2.550000
0.400000 0.000000 2.550000
0.000000 1.300000 2.550000
0.728000 1.300000 2.550000
1.300000 0.728000 2.550000
1.300000 0.000000 2.550000
0.000000 1.300000 2.400000
0.728000 1.300000 2.400000
1.300000 0.728000 2.400000
1.300000 0.000000 2.400000
0.000000 0.000000 0.000000
0.000000 0.000000 0.000000
0.000000 0.000000 0.000000
0.000000 0.000000 0.000000
1.425000 0.000000 0.000000
1.425000 0.798000 0.000000
0.798000 1.425000 0.000000
0.000000 1.425000 0.000000
1.500000 0.000000 0.075000
1.500000 0.840000 0.075000
0.840000 1.500000 0.075000
0.000000 1.500000 0.075000
1.500000 0.000000 0.150000
1.500000 0.840000 0.150000
0.840000 1.500000 0.150000
0.000000 1.500000 0.150000
0.000000 0.000000 0.000000
0.000000 0.000000 0.000000
0.000000 0.000000 0.000000
0.000000 0.000000 0.000000
0.000000 1.425000 0.000000
-0.798000 1.425000 0.000000
-1.425000 0.798000 0.000000
-1.425000 0.000000 0.000000
0.000000 1.500000 0.075000
-0.840000 1.500000 0.075000
-1.500000 0.840000 0.075000
-1.500000 0.000000 0.075000
0.000000 1.500000 0.150000
-0.840000 1.500000 0.150000
-1.500000 0.840000 0.150000
-1.500000 0.000000 0.150000
0.000000 0.000000 0.000000
0.000000 0.000000 0.000000
0.000000 0.000000 0.000000
0.000000 0.000000 0.000000
-1.425000 0.000000 0.000000
-1.425000 -0.798000 0.000000
-0.798000 -1.425000 0.000000
0.000000 -1.425000 0.000000
-1.500000 0.000000 0.075000
-1.500000 -0.840000 0.075000
-0.840000 -1.500000 0.075000
0.000000 -1.500000 0.075000
-1.500000 0.000000 0.150000
-1.500000 -0.840000 0.150000
-0.840000 -1.500000 0.150000
0.000000 -1.500000 0.150000
0.000000 0.000000 0.000000
0.000000 0.000000 0.000000
0.000000 0.000000 0.000000
0.000000 0.000000 0.000000
0.000000 -1.425000 0.000000
0.798000 -1.425000 0.000000
1.425000 -0.798000 0.000000
1.425000 0.000000 0.000000
0.000000 -1.500000 0.075000
0.840000 -1.500000 0.075000
1.500000 -0.840000 0.075000
1.500000 0.000000 0.075000
0.000000 -1.500000 0.150000
0.840000 -1.500000 0.150000
1.500000 -0.840000 0.150000
1.500000 0.000000 0.150000
3 0 4 1
3 5 4 1
3 1 5 2
3 6 5 2
3 2 6 3
3 7 6 3
3 4 8 5
3 9 8 5
3 5 9 6
3 10 9 6
3 6 10 7
3 11 10 7
3 8 12 9
3 13 12 9
3 9 13 10
3 14 13 10
3 10 14 11
3 15 14 11
3 16 20 17
3 21 20 17
3 17 21 18
3 22 21 18
3 18 22 19
3 23 22 19
3 20 24 21
3 25 24 21
3 21 25 22
3 26 25 22
3 22 26 23
3 27 26 23
3 24 28 25
3 29 28 25
3 25 29 26
3 30 29 26
3 26 30 27
3 31 30 27
3 32 36 33
3 37 36 33
3 33 37 34
3 38 37 34
3 34 38 35
3 39 38 35
3 36 40 37
3 41 40 37
3 37 41 38
3 42 41 38
3 38 42 39
3 43 42 39
3 40 44 41
3 45 44 41
3 41 45 42
3 46 45 42
3 42 46 43
3 47 46 43
3 48 52 49
3 53 52 49
3 49 53 50
3 54 53 50
3 50 54 51
3 55 54 51
3 52 56 53
3 57 56 53
3 53 57 54
3 58 57 54
3 54 58 55
3 59 58 55
3 56 60 57
3 61 60 57
3 57 61 58
3 62 61 58
3 58 62 59
3 63 62 59
3 64 68 65
3 69 68 65
3 65 69 66
3 70 69 66
3 66 70 67
3 71 70 67
3 68 72 69
3 73 72 69
3 69 73 70
3 74 73 70
3 70 74 71
3 75 74 71
3 72 76 73
3 77 76 73
3 73 77 74
3 78 77 74
3 74 78 75
3 79 78 75
3 80 84 81
3 85 84 81
3 81 85 82
3 86 85 82
3 82 86 83
3 87 86 83
3 84 88 85
3 89 88 85
3 85 89 86
3 90 89 86
3 86 90 87
3 91 90 87
3 88 92 89
3 93 92 89
3 89 93 90
3 94 93 90
3 90 94 91
3 95 94 91
3 96 100 97
3 101 100 97
3 97 101 98
3 102 101 98
3 98 102 99
3 103 102 99
3 100 104 101
3 105 104 101
3 101 105 102
3 106 105 102
3 102 106 103
3 107 106 103
3 104 108 105
3 109 108 105
3 105 109 106
3 110 109 106
3 106 110 107
3 111 110 107
3 112 116 113
3 117 116 113
3 113 117 114
3 118 117 114
3 114 118 115
3 119 118 115
3 116 120 117
3 121 120 117
3 117 121 118
3 122 121 118
3 118 122 119
3 123 122 119
3 120 124 121
3 125 124 121
3 121 125 122
3 126 125 122
3 122 126 123
3 127 126 123
3 128 132 129
3 133 132 129
3 129 133 130
3 134 133 130
3 130 134 131
3 135 134 131
3 132 136 133
3 137 136 133
3 133 137 134
3 138 137 134
3 134 138 135
3 139 138 135
3 136 140 137
3 141 140 137
3 137 141 138
3 142 141 138
3 138 142 139
3 143 142 139
3 144 148 145
3 149 148 145
3 145 149 146
3 150 149 146
3 146 150 147
3 151 150 147
3 148 152 149
3 153 152 149
3 149 153 150
3 154 153 150
3 150 154 151
3 155 154 151
3 152 156 153
3 157 156 153
3 153 157 154
3 158 157 154
3 154 158 155
3 159 158 155
3 160 164 161
3 165 164 161
3 161 165 162
3 166 165 162
3 162 166 163
3 167 166 163
3 164 168 165
3 169 168 165
3 165 169 166
3 170 169 166
3 166 170 167
3 171 170 167
3 168 172 169
3 173 172 169
3 169 173 170
3 174 173 170
3 170 174 171
3 175 174 171
3 176 180 177
3 181 180 177
3 177 181 178
3 182 181 178
3 178 182 179
3 183 182 179
3 180 184 181
3 185 184 181
3 181 185 182
3 186 185 182
3 182 186 183
3 187 186 183
3 184 188 185
3 189 188 185
3 185 189 186
3 190 189 186
3 186 190 187
3 191 190 187
3 192 196 193
3 197 196 193
3 193 197 194
3 198 197 194
3 194 198 195
3 199 198 195
3 196 200 197
3 201 200 197
3 197 201 198
3 202 201 198
3 198 202 199
3 203 202 199
3 200 204 201
3 205 204 201
3 201 205 202
3 206 205 202
3 202 206 203
3 207 206 203
3 208 212 209
3 213 212 209
3 209 213 210
3 214 213 210
3 210 214 211
3 215 214 211
3 212 216 213
3 217 216 213
3 213 217 214
3 218 217 214
3 214 218 215
3 219 218 215
3 216 220 217
3 221 220 217
3 217 221 218
3 222 221 218
3 218 222 219
3 223 222 219
3 224 228 225
3 229 228 225
3 225 229 226
3 230 229 226
3 226 230 227
3 231 230 227
3 228 232 229
3 233 232 229
3 229 233 230
3 234 233 230
3 230 234 231
3 235 234 231
3 232 236 233
3 237 236 233
3 233 237 234
3 238 237 234
3 234 238 235
3 239 238 235
3 240 244 241
3 245 244 241
3 241 245 242
3 246 245 242
3 242 246 243
3 247 246 243
3 244 248 245
3 249 248 245
3 245 249 246
3 250 249 246
3 246 250 247
3 251 250 247
3 248 252 249
3 253 252 249
3 249 253 250
3 254 253 250
3 250 254 251
3 255 254 251
3 256 260 257
3 261 260 257
3 257 261 258
3 262 261 258
3 258 262 259
3 263 262 259
3 260 264 261
3 265 264 261
3 261 265 262
3 266 265 262
3 262 266 263
3 267 266 263
3 264 268 265
3 269 268 265
3 265 269 266
3 270 269 266
3 266 270 267
3 271 270 267
3 272 276 273
3 277 276 273
3 273 277 274
3 278 277 274
3 274 278 275
3 279 278 275
3 276 280 277
3 281 280 277
3 277 281 278
3 282 281 278
3 278 282 279
3 283 282 279
3 280 284 281
3 285 284 281
3 281 285 282
3 286 285 282
3 282 286 283
3 287 286 283
3 288 292 289
3 293 292 289
3 289 293 290
3 294 293 290
3 290 294 291
3 295 294 291
3 292 296 293
3 297 296 293
3 293 297 294
3 298 297 294
3 294 298 295
3 299 298 295
3 296 300 297
3 301 300 297
3 297 301 298
3 302 301 298
3 298 302 299
3 303 302 299
3 304 308 305
3 309 308 305
3 305 309 306
3 310 309 306
3 306 310 307
3 311 310 307
3 308 312 309
3 313 312 309
3 309 313 310
3 314 313 310
3 310 314 311
3 315 314 311
3 312 316 313
3 317 316 313
3 313 317 314
3 318 317 314
3 314 318 315
3 319 318 315
3 320 324 321
3 325 324 321
3 321 325 322
3 326 325 322
3 322 326 323
3 327 326 323
3 324 328 325
3 329 328 325
3 325 329 326
3 330 329 326
3 326 330 327
3 331 330 327
3 328 332 329
3 333 332 329
3 329 333 330
3 334 333 330
3 330 334 331
3 335 334 331
3 336 340 337
3 341 340 337
3 337 341 338
3 342 341 338
3 338 342 339
3 343 342 339
3 340 344 341
3 345 344 341
3 341 345 342
3 346 345 342
3 342 346 343
3 347 346 343
3 344 348 345
3 349 348 345
3 345 349 346
3 350 349 346
3 346 350 347
3 351 350 347
3 352 356 353
3 357 356 353
3 353 357 354
3 358 357 354
3 354 358 355
3 359 358 355
3 356 360 357
3 361 360 357
3 357 361 358
3 362 361 358
3 358 362 359
3 363 362 359
3 360 364 361
3 365 364 361
3 361 365 362
3 366 365 362
3 362 366 363
3 367 366 363
3 368 372 369
3 373 372 369
3 369 373 370
3 374 373 370
3 370 374 371
3 375 374 371
3 372 376 373
3 377 376 373
3 373 377 374
3 378 377 374
3 374 378 375
3 379 378 375
3 376 380 377
3 381 380 377
3 377 381 378
3 382 381 378
3 378 382 379
3 383 382 379
3 384 388 385
3 389 388 385
3 385 389 386
3 390 389 386
3 386 390 387
3 391 390 387
3 388 392 389
3 393 392 389
3 389 393 390
3 394 393 390
3 390 394 391
3 395 394 391
3 392 396 393
3 397 396 393
3 393 397 394
3 398 397 394
3 394 398 395
3 399 398 395
3 400 404 401
3 405 404 401
3 401 405 402
3 406 405 402
3 402 406 403
3 407 406 403
3 404 408 405
3 409 408 405
3 405 409 406
3 410 409 406
3 406 410 407
3 411 410 407
3 408 412 409
3 413 412 409
3 409 413 410
3 414 413 410
3 410 414 411
3 415 414 411
3 416 420 417
3 421 420 417
3 417 421 418
3 422 421 418
3 418 422 419
3 423 422 419
3 420 424 421
3 425 424 421
3 421 425 422
3 426 425 422
3 422 426 423
3 427 426 423
3 424 428 425
3 429 428 425
3 425 429 426
3 430 429 426
3 426 430 427
3 431 430 427
3 432 436 433
3 437 436 433
3 433 437 434
3 438 437 434
3 434 438 435
3 439 438 435
3 436 440 437
3 441 440 437
3 437 441 438
3 442 441 438
3 438 442 439
3 443 442 439
3 440 444 441
3 445 444 441
3 441 445 442
3 446 445 442
3 442 446 443
3 447 446 443
3 448 452 449
3 453 452 449
3 449 453 450
3 454 453 450
3 450 454 451
3 455 454 451
3 452 456 453
3 457 456 453
3 453 457 454
3 458 457 454
3 454 458 455
3 459 458 455
3 456 460 457
3 461 460 457
3 457 461 458
3 462 461 458
3 458 462 459
3 463 462 459
3 464 468 465
3 469 468 465
3 465 469 466
3 470 469 466
3 466 470 467
3 471 470 467
3 468 472 469
3 473 472 469
3 469 473 470
3 474 473 470
3 470 474 471
3 475 474 471
3 472 476 473
3 477 476 473
3 473 477 474
3 478 477 474
3 474 478 475
3 479 478 475
3 480 484 481
3 485 484 481
3 481 485 482
3 486 485 482
3 482 486 483
3 487 486 483
3 484 488 485
3 489 488 485
3 485 489 486
3 490 489 486
3 486 490 487
3 491 490 487
3 488 492 489
3 493 492 489
3 489 493 490
3 494 493 490
3 490 494 491
3 495 494 491
3 496 500 497
3 501 500 497
3 497 501 498
3 502 501 498
3 498 502 499
3 503 502 499
3 500 504 501
3 505 504 501
3 501 505 502
3 506 505 502
3 502 506 503
3 507 506 503
3 504 508 505
3 509 508 505
3 505 509 506
3 510 509 506
3 506 510 507
3 511 510 507
